<?xml version="1.0" encoding="UTF-8" standalone="no"?><svg xmlns="http://www.w3.org/2000/svg" xmlns:xlink="http://www.w3.org/1999/xlink" contentScriptType="application/ecmascript" contentStyleType="text/css" height="202px" preserveAspectRatio="none" style="width:418px;height:202px;background:#FFFFFF;" version="1.1" viewBox="0 0 418 202" width="418px" zoomAndPan="magnify"><defs><filter height="300%" id="fpk1w8mvq2pwp" width="300%" x="-1" y="-1"><feGaussianBlur result="blurOut" stdDeviation="2.0"/><feColorMatrix in="blurOut" result="blurOut2" type="matrix" values="0 0 0 0 0 0 0 0 0 0 0 0 0 0 0 0 0 0 .4 0"/><feOffset dx="4.0" dy="4.0" in="blurOut2" result="blurOut3"/><feBlend in="SourceGraphic" in2="blurOut3" mode="normal"/></filter></defs><g><!--MD5=[0f82a184c9bc1c997aea5b2c29efd30a]
class CuitValidator--><rect codeLine="1" fill="#FEFECE" filter="url(#fpk1w8mvq2pwp)" height="60.8047" id="CuitValidator" style="stroke:#A80036;stroke-width:1.5;" width="107" x="120.5" y="128"/><ellipse cx="135.5" cy="144" fill="#ADD1B2" rx="11" ry="11" style="stroke:#A80036;stroke-width:1.0;"/><path d="M137.8438,139.6719 C136.9063,139.2344 136.3125,139.0938 135.4375,139.0938 C132.8125,139.0938 130.8125,141.1719 130.8125,143.8906 L130.8125,145.0156 C130.8125,147.5938 132.9219,149.4844 135.8125,149.4844 C137.0313,149.4844 138.1875,149.1875 138.9375,148.6406 C139.5156,148.2344 139.8438,147.7813 139.8438,147.3906 C139.8438,146.9375 139.4531,146.5469 138.9844,146.5469 C138.7656,146.5469 138.5625,146.625 138.375,146.8125 C137.9219,147.2969 137.9219,147.2969 137.7344,147.3906 C137.3125,147.6563 136.625,147.7813 135.8594,147.7813 C133.8125,147.7813 132.5156,146.6875 132.5156,144.9844 L132.5156,143.8906 C132.5156,142.1094 133.7656,140.7969 135.5,140.7969 C136.0781,140.7969 136.6875,140.9531 137.1563,141.2031 C137.6406,141.4844 137.8125,141.7031 137.9063,142.1094 C137.9688,142.5156 138,142.6406 138.1406,142.7656 C138.2813,142.9063 138.5156,143.0156 138.7344,143.0156 C139,143.0156 139.2656,142.875 139.4375,142.6563 C139.5469,142.5 139.5781,142.3125 139.5781,141.8906 L139.5781,140.4688 C139.5781,140.0313 139.5625,139.9063 139.4688,139.75 C139.3125,139.4844 139.0313,139.3438 138.7344,139.3438 C138.4375,139.3438 138.2344,139.4375 138.0156,139.75 L137.8438,139.6719 Z " fill="#000000"/><text fill="#000000" font-family="sans-serif" font-size="12" lengthAdjust="spacing" textLength="75" x="149.5" y="148.1543">CuitValidator</text><line style="stroke:#A80036;stroke-width:1.5;" x1="121.5" x2="226.5" y1="160" y2="160"/><line style="stroke:#A80036;stroke-width:1.5;" x1="121.5" x2="226.5" y1="168" y2="168"/><ellipse cx="131.5" cy="179" fill="#84BE84" rx="3" ry="3" style="stroke:#038048;stroke-width:1.0;"/><text fill="#000000" font-family="sans-serif" font-size="11" lengthAdjust="spacing" textLength="45" x="140.5" y="182.2104">isValid()</text><!--MD5=[7345cccdf67e7e8c012a655a6764a183]
class CuitConstraint--><rect fill="#FEFECE" filter="url(#fpk1w8mvq2pwp)" height="48" id="CuitConstraint" style="stroke:#A80036;stroke-width:1.5;" width="118" x="7" y="13.5"/><ellipse cx="22" cy="29.5" fill="#B4A7E5" rx="11" ry="11" style="stroke:#A80036;stroke-width:1.0;"/><path d="M22.9531,26.2813 L24.6719,26.2813 C25.0625,26.2813 25.25,26.25 25.375,26.1719 C25.6406,26.0156 25.7813,25.7344 25.7813,25.4375 C25.7813,25.1719 25.6719,24.9063 25.4375,24.7344 C25.2656,24.625 25.125,24.5938 24.6719,24.5938 L19.5313,24.5938 C19.0938,24.5938 18.9688,24.6094 18.8125,24.7031 C18.5625,24.8594 18.4063,25.1563 18.4063,25.4375 C18.4063,25.7188 18.5469,25.9688 18.7656,26.1406 C18.9219,26.25 19.1094,26.2813 19.5313,26.2813 L21.25,26.2813 L21.25,32.7969 L19.5313,32.7969 C19.0938,32.7969 18.9688,32.8125 18.8125,32.9219 C18.5625,33.0781 18.4063,33.3594 18.4063,33.6563 C18.4063,33.9063 18.5469,34.1719 18.7656,34.3281 C18.9219,34.4531 19.125,34.5 19.5313,34.5 L24.6719,34.5 C25.4219,34.5 25.7813,34.2188 25.7813,33.6563 C25.7813,33.375 25.6719,33.125 25.4375,32.9531 C25.2656,32.8281 25.125,32.7969 24.6719,32.7969 L22.9531,32.7969 L22.9531,26.2813 Z " fill="#000000"/><text fill="#000000" font-family="sans-serif" font-size="12" font-style="italic" lengthAdjust="spacing" textLength="86" x="36" y="33.6543">CuitConstraint</text><line style="stroke:#A80036;stroke-width:1.5;" x1="8" x2="124" y1="45.5" y2="45.5"/><line style="stroke:#A80036;stroke-width:1.5;" x1="8" x2="124" y1="53.5" y2="53.5"/><!--MD5=[acc7c0dda853b56dd0f897937bc1b27d]
class UsuarioDto--><rect codeLine="5" fill="#FEFECE" filter="url(#fpk1w8mvq2pwp)" height="60.8047" id="UsuarioDto" style="stroke:#A80036;stroke-width:1.5;" width="244" x="160" y="7"/><ellipse cx="244.25" cy="23" fill="#ADD1B2" rx="11" ry="11" style="stroke:#A80036;stroke-width:1.0;"/><path d="M246.5938,18.6719 C245.6563,18.2344 245.0625,18.0938 244.1875,18.0938 C241.5625,18.0938 239.5625,20.1719 239.5625,22.8906 L239.5625,24.0156 C239.5625,26.5938 241.6719,28.4844 244.5625,28.4844 C245.7813,28.4844 246.9375,28.1875 247.6875,27.6406 C248.2656,27.2344 248.5938,26.7813 248.5938,26.3906 C248.5938,25.9375 248.2031,25.5469 247.7344,25.5469 C247.5156,25.5469 247.3125,25.625 247.125,25.8125 C246.6719,26.2969 246.6719,26.2969 246.4844,26.3906 C246.0625,26.6563 245.375,26.7813 244.6094,26.7813 C242.5625,26.7813 241.2656,25.6875 241.2656,23.9844 L241.2656,22.8906 C241.2656,21.1094 242.5156,19.7969 244.25,19.7969 C244.8281,19.7969 245.4375,19.9531 245.9063,20.2031 C246.3906,20.4844 246.5625,20.7031 246.6563,21.1094 C246.7188,21.5156 246.75,21.6406 246.8906,21.7656 C247.0313,21.9063 247.2656,22.0156 247.4844,22.0156 C247.75,22.0156 248.0156,21.875 248.1875,21.6563 C248.2969,21.5 248.3281,21.3125 248.3281,20.8906 L248.3281,19.4688 C248.3281,19.0313 248.3125,18.9063 248.2188,18.75 C248.0625,18.4844 247.7813,18.3438 247.4844,18.3438 C247.1875,18.3438 246.9844,18.4375 246.7656,18.75 L246.5938,18.6719 Z " fill="#000000"/><text fill="#000000" font-family="sans-serif" font-size="12" lengthAdjust="spacing" textLength="67" x="264.75" y="27.1543">UsuarioDto</text><line style="stroke:#A80036;stroke-width:1.5;" x1="161" x2="403" y1="39" y2="39"/><line style="stroke:#A80036;stroke-width:1.5;" x1="161" x2="403" y1="47" y2="47"/><rect fill="#F24D5C" height="6" style="stroke:#C82930;stroke-width:1.0;" width="6" x="168" y="55"/><text fill="#000000" font-family="sans-serif" font-size="11" lengthAdjust="spacing" textLength="218" x="180" y="61.2104">@CuitConstraint(message) Cuit: String</text><!--MD5=[ea631cc45f59e9f1ce5263e1170f789e]
reverse link CuitConstraint to CuitValidator--><path d="M100.6496,76.679 C115.738,93.304 133.149,112.4886 147.221,127.9935 " fill="none" id="CuitConstraint-backto-CuitValidator" style="stroke:#A80036;stroke-width:1.0;stroke-dasharray:7.0,7.0;"/><polygon fill="none" points="95.3374,81.241,87.0799,61.727,105.7045,71.833,95.3374,81.241" style="stroke:#A80036;stroke-width:1.0;"/><!--MD5=[e63f3c0e41ef2bcef926989284f71e8b]
link UsuarioDto to CuitValidator--><path codeLine="10" d="M255.026,68.222 C239.691,85.118 220.439,106.331 204.549,123.8393 " fill="none" id="UsuarioDto-to-CuitValidator" style="stroke:#A80036;stroke-width:1.0;stroke-dasharray:7.0,7.0;"/><polygon fill="#A80036" points="201.005,127.7447,210.0153,123.768,204.3651,124.042,204.0911,118.3918,201.005,127.7447" style="stroke:#A80036;stroke-width:1.0;"/><!--MD5=[a73745c186b3370bb988c3da1bdfeb64]
@startuml
class CuitValidator implements CuitConstraint{
  + isValid()
}

class UsuarioDto {
   
  -@CuitConstraint(message) Cuit: String
}

UsuarioDto ..> CuitValidator
@enduml

PlantUML version 1.2021.10beta3(Unknown compile time)
(GPL source distribution)
Java Runtime: Java(TM) SE Runtime Environment
JVM: Java HotSpot(TM) 64-Bit Server VM
Default Encoding: UTF-8
Language: en
Country: US
--></g></svg>