<?xml version="1.0" encoding="UTF-8" standalone="no"?><svg xmlns="http://www.w3.org/2000/svg" xmlns:xlink="http://www.w3.org/1999/xlink" contentScriptType="application/ecmascript" contentStyleType="text/css" height="629px" preserveAspectRatio="none" style="width:1190px;height:629px;background:#FFFFFF;" version="1.1" viewBox="0 0 1190 629" width="1190px" zoomAndPan="magnify"><defs><filter height="300%" id="f1snpae815mi98" width="300%" x="-1" y="-1"><feGaussianBlur result="blurOut" stdDeviation="2.0"/><feColorMatrix in="blurOut" result="blurOut2" type="matrix" values="0 0 0 0 0 0 0 0 0 0 0 0 0 0 0 0 0 0 .4 0"/><feOffset dx="4.0" dy="4.0" in="blurOut2" result="blurOut3"/><feBlend in="SourceGraphic" in2="blurOut3" mode="normal"/></filter></defs><g><!--MD5=[6e3b729d5d064696180d07fcad41883d]
class RestException--><rect codeLine="1" fill="#FEFECE" filter="url(#f1snpae815mi98)" height="48" id="RestException" style="stroke:#A80036;stroke-width:1.5;" width="117" x="177.5" y="567"/><ellipse cx="192.5" cy="583" fill="#ADD1B2" rx="11" ry="11" style="stroke:#A80036;stroke-width:1.0;"/><path d="M194.8438,578.6719 C193.9063,578.2344 193.3125,578.0938 192.4375,578.0938 C189.8125,578.0938 187.8125,580.1719 187.8125,582.8906 L187.8125,584.0156 C187.8125,586.5938 189.9219,588.4844 192.8125,588.4844 C194.0313,588.4844 195.1875,588.1875 195.9375,587.6406 C196.5156,587.2344 196.8438,586.7813 196.8438,586.3906 C196.8438,585.9375 196.4531,585.5469 195.9844,585.5469 C195.7656,585.5469 195.5625,585.625 195.375,585.8125 C194.9219,586.2969 194.9219,586.2969 194.7344,586.3906 C194.3125,586.6563 193.625,586.7813 192.8594,586.7813 C190.8125,586.7813 189.5156,585.6875 189.5156,583.9844 L189.5156,582.8906 C189.5156,581.1094 190.7656,579.7969 192.5,579.7969 C193.0781,579.7969 193.6875,579.9531 194.1563,580.2031 C194.6406,580.4844 194.8125,580.7031 194.9063,581.1094 C194.9688,581.5156 195,581.6406 195.1406,581.7656 C195.2813,581.9063 195.5156,582.0156 195.7344,582.0156 C196,582.0156 196.2656,581.875 196.4375,581.6563 C196.5469,581.5 196.5781,581.3125 196.5781,580.8906 L196.5781,579.4688 C196.5781,579.0313 196.5625,578.9063 196.4688,578.75 C196.3125,578.4844 196.0313,578.3438 195.7344,578.3438 C195.4375,578.3438 195.2344,578.4375 195.0156,578.75 L194.8438,578.6719 Z " fill="#000000"/><text fill="#000000" font-family="sans-serif" font-size="12" lengthAdjust="spacing" textLength="85" x="206.5" y="587.1543">RestException</text><line style="stroke:#A80036;stroke-width:1.5;" x1="178.5" x2="293.5" y1="599" y2="599"/><line style="stroke:#A80036;stroke-width:1.5;" x1="178.5" x2="293.5" y1="607" y2="607"/><!--MD5=[c6c257ba490bc56d720550e176601ae2]
class ResponseEntityExceptionHandler--><rect fill="#FEFECE" filter="url(#f1snpae815mi98)" height="48" id="ResponseEntityExceptionHandler" style="stroke:#A80036;stroke-width:1.5;" width="230" x="7" y="459"/><ellipse cx="22" cy="475" fill="#ADD1B2" rx="11" ry="11" style="stroke:#A80036;stroke-width:1.0;"/><path d="M24.3438,470.6719 C23.4063,470.2344 22.8125,470.0938 21.9375,470.0938 C19.3125,470.0938 17.3125,472.1719 17.3125,474.8906 L17.3125,476.0156 C17.3125,478.5938 19.4219,480.4844 22.3125,480.4844 C23.5313,480.4844 24.6875,480.1875 25.4375,479.6406 C26.0156,479.2344 26.3438,478.7813 26.3438,478.3906 C26.3438,477.9375 25.9531,477.5469 25.4844,477.5469 C25.2656,477.5469 25.0625,477.625 24.875,477.8125 C24.4219,478.2969 24.4219,478.2969 24.2344,478.3906 C23.8125,478.6563 23.125,478.7813 22.3594,478.7813 C20.3125,478.7813 19.0156,477.6875 19.0156,475.9844 L19.0156,474.8906 C19.0156,473.1094 20.2656,471.7969 22,471.7969 C22.5781,471.7969 23.1875,471.9531 23.6563,472.2031 C24.1406,472.4844 24.3125,472.7031 24.4063,473.1094 C24.4688,473.5156 24.5,473.6406 24.6406,473.7656 C24.7813,473.9063 25.0156,474.0156 25.2344,474.0156 C25.5,474.0156 25.7656,473.875 25.9375,473.6563 C26.0469,473.5 26.0781,473.3125 26.0781,472.8906 L26.0781,471.4688 C26.0781,471.0313 26.0625,470.9063 25.9688,470.75 C25.8125,470.4844 25.5313,470.3438 25.2344,470.3438 C24.9375,470.3438 24.7344,470.4375 24.5156,470.75 L24.3438,470.6719 Z " fill="#000000"/><text fill="#000000" font-family="sans-serif" font-size="12" lengthAdjust="spacing" textLength="198" x="36" y="479.1543">ResponseEntityExceptionHandler</text><line style="stroke:#A80036;stroke-width:1.5;" x1="8" x2="236" y1="491" y2="491"/><line style="stroke:#A80036;stroke-width:1.5;" x1="8" x2="236" y1="499" y2="499"/><!--MD5=[71caca73a307a0122787d530ff1be47e]
class GenericController--><rect codeLine="2" fill="#FEFECE" filter="url(#f1snpae815mi98)" height="99.2188" id="GenericController" style="stroke:#A80036;stroke-width:1.5;" width="136" x="472" y="7"/><ellipse cx="487" cy="23" fill="#B4A7E5" rx="11" ry="11" style="stroke:#A80036;stroke-width:1.0;"/><path d="M487.9531,19.7813 L489.6719,19.7813 C490.0625,19.7813 490.25,19.75 490.375,19.6719 C490.6406,19.5156 490.7813,19.2344 490.7813,18.9375 C490.7813,18.6719 490.6719,18.4063 490.4375,18.2344 C490.2656,18.125 490.125,18.0938 489.6719,18.0938 L484.5313,18.0938 C484.0938,18.0938 483.9688,18.1094 483.8125,18.2031 C483.5625,18.3594 483.4063,18.6563 483.4063,18.9375 C483.4063,19.2188 483.5469,19.4688 483.7656,19.6406 C483.9219,19.75 484.1094,19.7813 484.5313,19.7813 L486.25,19.7813 L486.25,26.2969 L484.5313,26.2969 C484.0938,26.2969 483.9688,26.3125 483.8125,26.4219 C483.5625,26.5781 483.4063,26.8594 483.4063,27.1563 C483.4063,27.4063 483.5469,27.6719 483.7656,27.8281 C483.9219,27.9531 484.125,28 484.5313,28 L489.6719,28 C490.4219,28 490.7813,27.7188 490.7813,27.1563 C490.7813,26.875 490.6719,26.625 490.4375,26.4531 C490.2656,26.3281 490.125,26.2969 489.6719,26.2969 L487.9531,26.2969 L487.9531,19.7813 Z " fill="#000000"/><text fill="#000000" font-family="sans-serif" font-size="12" font-style="italic" lengthAdjust="spacing" textLength="104" x="501" y="27.1543">GenericController</text><line style="stroke:#A80036;stroke-width:1.5;" x1="473" x2="607" y1="39" y2="39"/><line style="stroke:#A80036;stroke-width:1.5;" x1="473" x2="607" y1="47" y2="47"/><ellipse cx="483" cy="58" fill="#84BE84" rx="3" ry="3" style="stroke:#038048;stroke-width:1.0;"/><text fill="#000000" font-family="sans-serif" font-size="11" lengthAdjust="spacing" textLength="36" x="492" y="61.2104">save()</text><ellipse cx="483" cy="70.8047" fill="#84BE84" rx="3" ry="3" style="stroke:#038048;stroke-width:1.0;"/><text fill="#000000" font-family="sans-serif" font-size="11" lengthAdjust="spacing" textLength="48" x="492" y="74.0151">update()</text><ellipse cx="483" cy="83.6094" fill="#84BE84" rx="3" ry="3" style="stroke:#038048;stroke-width:1.0;"/><text fill="#000000" font-family="sans-serif" font-size="11" lengthAdjust="spacing" textLength="84" x="492" y="86.8198">partialUpdate()</text><ellipse cx="483" cy="96.4141" fill="#84BE84" rx="3" ry="3" style="stroke:#038048;stroke-width:1.0;"/><text fill="#000000" font-family="sans-serif" font-size="11" lengthAdjust="spacing" textLength="29" x="492" y="99.6245">find()</text><!--MD5=[49e93c77d80a11d75e974ec6dabad110]
class GenericEntityController--><rect codeLine="9" fill="#FEFECE" filter="url(#f1snpae815mi98)" height="112.0234" id="GenericEntityController" style="stroke:#A80036;stroke-width:1.5;" width="184" x="352" y="166"/><ellipse cx="372.4" cy="182" fill="#A9DCDF" rx="11" ry="11" style="stroke:#A80036;stroke-width:1.0;"/><path d="M374.4781,183.8125 L374.8688,184.7969 L374.4781,184.7969 C374.025,184.7969 373.9156,184.8125 373.7594,184.9219 C373.5094,185.0781 373.3531,185.3594 373.3531,185.6563 C373.3531,185.9219 373.4938,186.1719 373.7125,186.3281 C373.8531,186.4531 374.0563,186.5 374.4781,186.5 L376.8375,186.5 C377.1969,186.5 377.4156,186.4688 377.5563,186.375 C377.8063,186.2344 377.9625,185.9375 377.9625,185.6563 C377.9625,185.375 377.8219,185.125 377.6031,184.9688 C377.4313,184.8281 377.275,184.7969 376.8063,184.7969 L373.4156,176.5938 L369.7438,176.5938 C369.2906,176.5938 369.1656,176.6094 369.0094,176.7031 C368.7594,176.875 368.6031,177.1563 368.6031,177.4375 C368.6031,177.7188 368.7438,177.9688 368.9625,178.1406 C369.1344,178.25 369.3063,178.2813 369.7438,178.2813 L370.8219,178.2813 L368.1813,184.7969 C367.7594,184.7969 367.6031,184.8125 367.4469,184.9219 C367.1969,185.0781 367.0406,185.3594 367.0406,185.6563 C367.0406,186.2188 367.4156,186.5 368.1656,186.5 L370.4313,186.5 C370.7906,186.5 371.0094,186.4688 371.1344,186.375 C371.4,186.2344 371.5406,185.9375 371.5406,185.6563 C371.5406,185.375 371.4156,185.125 371.1969,184.9531 C371.025,184.8281 370.8844,184.7969 370.4313,184.7969 L370.0406,184.7969 L370.4313,183.8125 L374.4781,183.8125 Z M373.775,182.1094 L371.1031,182.1094 L372.4469,178.8438 L373.775,182.1094 Z " fill="#000000"/><text fill="#000000" font-family="sans-serif" font-size="12" font-style="italic" lengthAdjust="spacing" textLength="140" x="387.6" y="186.1543">GenericEntityController</text><line style="stroke:#A80036;stroke-width:1.5;" x1="353" x2="535" y1="198" y2="198"/><line style="stroke:#A80036;stroke-width:1.5;" x1="353" x2="535" y1="206" y2="206"/><text fill="#000000" font-family="sans-serif" font-size="11" font-style="italic" lengthAdjust="spacing" textLength="158" x="372" y="220.2104">GenericService getService()</text><ellipse cx="363" cy="229.8047" fill="#84BE84" rx="3" ry="3" style="stroke:#038048;stroke-width:1.0;"/><text fill="#000000" font-family="sans-serif" font-size="11" lengthAdjust="spacing" textLength="36" x="372" y="233.0151">save()</text><ellipse cx="363" cy="242.6094" fill="#84BE84" rx="3" ry="3" style="stroke:#038048;stroke-width:1.0;"/><text fill="#000000" font-family="sans-serif" font-size="11" lengthAdjust="spacing" textLength="48" x="372" y="245.8198">update()</text><ellipse cx="363" cy="255.4141" fill="#84BE84" rx="3" ry="3" style="stroke:#038048;stroke-width:1.0;"/><text fill="#000000" font-family="sans-serif" font-size="11" lengthAdjust="spacing" textLength="84" x="372" y="258.6245">partialUpdate()</text><ellipse cx="363" cy="268.2188" fill="#84BE84" rx="3" ry="3" style="stroke:#038048;stroke-width:1.0;"/><text fill="#000000" font-family="sans-serif" font-size="11" lengthAdjust="spacing" textLength="29" x="372" y="271.4292">find()</text><!--MD5=[356bca08515a5260142359877c3882a6]
class GenericService--><rect codeLine="18" fill="#FEFECE" filter="url(#f1snpae815mi98)" height="60.8047" id="GenericService" style="stroke:#A80036;stroke-width:1.5;" width="181" x="353.5" y="338"/><ellipse cx="395.05" cy="354" fill="#A9DCDF" rx="11" ry="11" style="stroke:#A80036;stroke-width:1.0;"/><path d="M397.1281,355.8125 L397.5188,356.7969 L397.1281,356.7969 C396.675,356.7969 396.5656,356.8125 396.4094,356.9219 C396.1594,357.0781 396.0031,357.3594 396.0031,357.6563 C396.0031,357.9219 396.1438,358.1719 396.3625,358.3281 C396.5031,358.4531 396.7063,358.5 397.1281,358.5 L399.4875,358.5 C399.8469,358.5 400.0656,358.4688 400.2063,358.375 C400.4563,358.2344 400.6125,357.9375 400.6125,357.6563 C400.6125,357.375 400.4719,357.125 400.2531,356.9688 C400.0813,356.8281 399.925,356.7969 399.4563,356.7969 L396.0656,348.5938 L392.3938,348.5938 C391.9406,348.5938 391.8156,348.6094 391.6594,348.7031 C391.4094,348.875 391.2531,349.1563 391.2531,349.4375 C391.2531,349.7188 391.3938,349.9688 391.6125,350.1406 C391.7844,350.25 391.9563,350.2813 392.3938,350.2813 L393.4719,350.2813 L390.8313,356.7969 C390.4094,356.7969 390.2531,356.8125 390.0969,356.9219 C389.8469,357.0781 389.6906,357.3594 389.6906,357.6563 C389.6906,358.2188 390.0656,358.5 390.8156,358.5 L393.0813,358.5 C393.4406,358.5 393.6594,358.4688 393.7844,358.375 C394.05,358.2344 394.1906,357.9375 394.1906,357.6563 C394.1906,357.375 394.0656,357.125 393.8469,356.9531 C393.675,356.8281 393.5344,356.7969 393.0813,356.7969 L392.6906,356.7969 L393.0813,355.8125 L397.1281,355.8125 Z M396.425,354.1094 L393.7531,354.1094 L395.0969,350.8438 L396.425,354.1094 Z " fill="#000000"/><text fill="#000000" font-family="sans-serif" font-size="12" font-style="italic" lengthAdjust="spacing" textLength="90" x="414.95" y="358.1543">GenericService</text><line style="stroke:#A80036;stroke-width:1.5;" x1="354.5" x2="533.5" y1="370" y2="370"/><line style="stroke:#A80036;stroke-width:1.5;" x1="354.5" x2="533.5" y1="378" y2="378"/><text fill="#000000" font-family="sans-serif" font-size="11" font-style="italic" lengthAdjust="spacing" textLength="169" x="359.5" y="392.2104">JpaRepository getRepository()</text><!--MD5=[ad433dd4e6b06427f8118cef13009925]
class GenericDtoController--><rect codeLine="24" fill="#FEFECE" filter="url(#f1snpae815mi98)" height="112.0234" id="GenericDtoController" style="stroke:#A80036;stroke-width:1.5;" width="184" x="571" y="166"/><ellipse cx="598.15" cy="182" fill="#A9DCDF" rx="11" ry="11" style="stroke:#A80036;stroke-width:1.0;"/><path d="M600.2281,183.8125 L600.6188,184.7969 L600.2281,184.7969 C599.775,184.7969 599.6656,184.8125 599.5094,184.9219 C599.2594,185.0781 599.1031,185.3594 599.1031,185.6563 C599.1031,185.9219 599.2438,186.1719 599.4625,186.3281 C599.6031,186.4531 599.8063,186.5 600.2281,186.5 L602.5875,186.5 C602.9469,186.5 603.1656,186.4688 603.3063,186.375 C603.5563,186.2344 603.7125,185.9375 603.7125,185.6563 C603.7125,185.375 603.5719,185.125 603.3531,184.9688 C603.1813,184.8281 603.025,184.7969 602.5563,184.7969 L599.1656,176.5938 L595.4938,176.5938 C595.0406,176.5938 594.9156,176.6094 594.7594,176.7031 C594.5094,176.875 594.3531,177.1563 594.3531,177.4375 C594.3531,177.7188 594.4938,177.9688 594.7125,178.1406 C594.8844,178.25 595.0563,178.2813 595.4938,178.2813 L596.5719,178.2813 L593.9313,184.7969 C593.5094,184.7969 593.3531,184.8125 593.1969,184.9219 C592.9469,185.0781 592.7906,185.3594 592.7906,185.6563 C592.7906,186.2188 593.1656,186.5 593.9156,186.5 L596.1813,186.5 C596.5406,186.5 596.7594,186.4688 596.8844,186.375 C597.15,186.2344 597.2906,185.9375 597.2906,185.6563 C597.2906,185.375 597.1656,185.125 596.9469,184.9531 C596.775,184.8281 596.6344,184.7969 596.1813,184.7969 L595.7906,184.7969 L596.1813,183.8125 L600.2281,183.8125 Z M599.525,182.1094 L596.8531,182.1094 L598.1969,178.8438 L599.525,182.1094 Z " fill="#000000"/><text fill="#000000" font-family="sans-serif" font-size="12" font-style="italic" lengthAdjust="spacing" textLength="125" x="614.85" y="186.1543">GenericDtoController</text><line style="stroke:#A80036;stroke-width:1.5;" x1="572" x2="754" y1="198" y2="198"/><line style="stroke:#A80036;stroke-width:1.5;" x1="572" x2="754" y1="206" y2="206"/><text fill="#000000" font-family="sans-serif" font-size="11" font-style="italic" lengthAdjust="spacing" textLength="158" x="591" y="220.2104">GenericService getService()</text><ellipse cx="582" cy="229.8047" fill="#84BE84" rx="3" ry="3" style="stroke:#038048;stroke-width:1.0;"/><text fill="#000000" font-family="sans-serif" font-size="11" lengthAdjust="spacing" textLength="36" x="591" y="233.0151">save()</text><ellipse cx="582" cy="242.6094" fill="#84BE84" rx="3" ry="3" style="stroke:#038048;stroke-width:1.0;"/><text fill="#000000" font-family="sans-serif" font-size="11" lengthAdjust="spacing" textLength="48" x="591" y="245.8198">update()</text><ellipse cx="582" cy="255.4141" fill="#84BE84" rx="3" ry="3" style="stroke:#038048;stroke-width:1.0;"/><text fill="#000000" font-family="sans-serif" font-size="11" lengthAdjust="spacing" textLength="84" x="591" y="258.6245">partialUpdate()</text><ellipse cx="582" cy="268.2188" fill="#84BE84" rx="3" ry="3" style="stroke:#038048;stroke-width:1.0;"/><text fill="#000000" font-family="sans-serif" font-size="11" lengthAdjust="spacing" textLength="29" x="591" y="271.4292">find()</text><!--MD5=[122694fe4f97f2939d318e1f7a713f67]
class GenericEntityService--><rect codeLine="35" fill="#FEFECE" filter="url(#f1snpae815mi98)" height="48" id="GenericEntityService" style="stroke:#A80036;stroke-width:1.5;" width="157" x="272.5" y="459"/><ellipse cx="287.5" cy="475" fill="#ADD1B2" rx="11" ry="11" style="stroke:#A80036;stroke-width:1.0;"/><path d="M289.8438,470.6719 C288.9063,470.2344 288.3125,470.0938 287.4375,470.0938 C284.8125,470.0938 282.8125,472.1719 282.8125,474.8906 L282.8125,476.0156 C282.8125,478.5938 284.9219,480.4844 287.8125,480.4844 C289.0313,480.4844 290.1875,480.1875 290.9375,479.6406 C291.5156,479.2344 291.8438,478.7813 291.8438,478.3906 C291.8438,477.9375 291.4531,477.5469 290.9844,477.5469 C290.7656,477.5469 290.5625,477.625 290.375,477.8125 C289.9219,478.2969 289.9219,478.2969 289.7344,478.3906 C289.3125,478.6563 288.625,478.7813 287.8594,478.7813 C285.8125,478.7813 284.5156,477.6875 284.5156,475.9844 L284.5156,474.8906 C284.5156,473.1094 285.7656,471.7969 287.5,471.7969 C288.0781,471.7969 288.6875,471.9531 289.1563,472.2031 C289.6406,472.4844 289.8125,472.7031 289.9063,473.1094 C289.9688,473.5156 290,473.6406 290.1406,473.7656 C290.2813,473.9063 290.5156,474.0156 290.7344,474.0156 C291,474.0156 291.2656,473.875 291.4375,473.6563 C291.5469,473.5 291.5781,473.3125 291.5781,472.8906 L291.5781,471.4688 C291.5781,471.0313 291.5625,470.9063 291.4688,470.75 C291.3125,470.4844 291.0313,470.3438 290.7344,470.3438 C290.4375,470.3438 290.2344,470.4375 290.0156,470.75 L289.8438,470.6719 Z " fill="#000000"/><text fill="#000000" font-family="sans-serif" font-size="12" lengthAdjust="spacing" textLength="125" x="301.5" y="479.1543">GenericEntityService</text><line style="stroke:#A80036;stroke-width:1.5;" x1="273.5" x2="428.5" y1="491" y2="491"/><line style="stroke:#A80036;stroke-width:1.5;" x1="273.5" x2="428.5" y1="499" y2="499"/><!--MD5=[261f80e93f9d8c58d4981681cee3eee3]
class GenericDtoService--><rect codeLine="37" fill="#FEFECE" filter="url(#f1snpae815mi98)" height="48" id="GenericDtoService" style="stroke:#A80036;stroke-width:1.5;" width="146" x="465" y="459"/><ellipse cx="480" cy="475" fill="#ADD1B2" rx="11" ry="11" style="stroke:#A80036;stroke-width:1.0;"/><path d="M482.3438,470.6719 C481.4063,470.2344 480.8125,470.0938 479.9375,470.0938 C477.3125,470.0938 475.3125,472.1719 475.3125,474.8906 L475.3125,476.0156 C475.3125,478.5938 477.4219,480.4844 480.3125,480.4844 C481.5313,480.4844 482.6875,480.1875 483.4375,479.6406 C484.0156,479.2344 484.3438,478.7813 484.3438,478.3906 C484.3438,477.9375 483.9531,477.5469 483.4844,477.5469 C483.2656,477.5469 483.0625,477.625 482.875,477.8125 C482.4219,478.2969 482.4219,478.2969 482.2344,478.3906 C481.8125,478.6563 481.125,478.7813 480.3594,478.7813 C478.3125,478.7813 477.0156,477.6875 477.0156,475.9844 L477.0156,474.8906 C477.0156,473.1094 478.2656,471.7969 480,471.7969 C480.5781,471.7969 481.1875,471.9531 481.6563,472.2031 C482.1406,472.4844 482.3125,472.7031 482.4063,473.1094 C482.4688,473.5156 482.5,473.6406 482.6406,473.7656 C482.7813,473.9063 483.0156,474.0156 483.2344,474.0156 C483.5,474.0156 483.7656,473.875 483.9375,473.6563 C484.0469,473.5 484.0781,473.3125 484.0781,472.8906 L484.0781,471.4688 C484.0781,471.0313 484.0625,470.9063 483.9688,470.75 C483.8125,470.4844 483.5313,470.3438 483.2344,470.3438 C482.9375,470.3438 482.7344,470.4375 482.5156,470.75 L482.3438,470.6719 Z " fill="#000000"/><text fill="#000000" font-family="sans-serif" font-size="12" lengthAdjust="spacing" textLength="114" x="494" y="479.1543">GenericDtoService</text><line style="stroke:#A80036;stroke-width:1.5;" x1="466" x2="610" y1="491" y2="491"/><line style="stroke:#A80036;stroke-width:1.5;" x1="466" x2="610" y1="499" y2="499"/><!--MD5=[1961810ab225f9ea47fddb5ca8ffed3b]
class EntidadPersistente--><rect codeLine="41" fill="#FEFECE" filter="url(#f1snpae815mi98)" height="86.4141" id="EntidadPersistente" style="stroke:#A80036;stroke-width:1.5;" width="201" x="739.5" y="13.5"/><ellipse cx="780.6" cy="29.5" fill="#ADD1B2" rx="11" ry="11" style="stroke:#A80036;stroke-width:1.0;"/><path d="M782.9438,25.1719 C782.0063,24.7344 781.4125,24.5938 780.5375,24.5938 C777.9125,24.5938 775.9125,26.6719 775.9125,29.3906 L775.9125,30.5156 C775.9125,33.0938 778.0219,34.9844 780.9125,34.9844 C782.1313,34.9844 783.2875,34.6875 784.0375,34.1406 C784.6156,33.7344 784.9438,33.2813 784.9438,32.8906 C784.9438,32.4375 784.5531,32.0469 784.0844,32.0469 C783.8656,32.0469 783.6625,32.125 783.475,32.3125 C783.0219,32.7969 783.0219,32.7969 782.8344,32.8906 C782.4125,33.1563 781.725,33.2813 780.9594,33.2813 C778.9125,33.2813 777.6156,32.1875 777.6156,30.4844 L777.6156,29.3906 C777.6156,27.6094 778.8656,26.2969 780.6,26.2969 C781.1781,26.2969 781.7875,26.4531 782.2563,26.7031 C782.7406,26.9844 782.9125,27.2031 783.0063,27.6094 C783.0688,28.0156 783.1,28.1406 783.2406,28.2656 C783.3813,28.4063 783.6156,28.5156 783.8344,28.5156 C784.1,28.5156 784.3656,28.375 784.5375,28.1563 C784.6469,28 784.6781,27.8125 784.6781,27.3906 L784.6781,25.9688 C784.6781,25.5313 784.6625,25.4063 784.5688,25.25 C784.4125,24.9844 784.1313,24.8438 783.8344,24.8438 C783.5375,24.8438 783.3344,24.9375 783.1156,25.25 L782.9438,25.1719 Z " fill="#000000"/><text fill="#000000" font-family="sans-serif" font-size="12" lengthAdjust="spacing" textLength="111" x="800.4" y="33.6543">EntidadPersistente</text><line style="stroke:#A80036;stroke-width:1.5;" x1="740.5" x2="939.5" y1="45.5" y2="45.5"/><text fill="#000000" font-family="sans-serif" font-size="11" lengthAdjust="spacing" textLength="44" x="745.5" y="59.7104">id: Long</text><text fill="#000000" font-family="sans-serif" font-size="11" lengthAdjust="spacing" textLength="158" x="745.5" y="72.5151">createDate: LocalDateTime</text><text fill="#000000" font-family="sans-serif" font-size="11" lengthAdjust="spacing" textLength="189" x="745.5" y="85.3198">lastModifiedDate: LocalDateTime</text><line style="stroke:#A80036;stroke-width:1.5;" x1="740.5" x2="939.5" y1="91.9141" y2="91.9141"/><!--MD5=[5db0949810dd851fed9e5c948bf4c8d3]
class UnaEntidad--><rect codeLine="47" fill="#FEFECE" filter="url(#f1snpae815mi98)" height="48" id="UnaEntidad" style="stroke:#A80036;stroke-width:1.5;" width="99" x="790.5" y="198"/><ellipse cx="805.5" cy="214" fill="#ADD1B2" rx="11" ry="11" style="stroke:#A80036;stroke-width:1.0;"/><path d="M807.8438,209.6719 C806.9063,209.2344 806.3125,209.0938 805.4375,209.0938 C802.8125,209.0938 800.8125,211.1719 800.8125,213.8906 L800.8125,215.0156 C800.8125,217.5938 802.9219,219.4844 805.8125,219.4844 C807.0313,219.4844 808.1875,219.1875 808.9375,218.6406 C809.5156,218.2344 809.8438,217.7813 809.8438,217.3906 C809.8438,216.9375 809.4531,216.5469 808.9844,216.5469 C808.7656,216.5469 808.5625,216.625 808.375,216.8125 C807.9219,217.2969 807.9219,217.2969 807.7344,217.3906 C807.3125,217.6563 806.625,217.7813 805.8594,217.7813 C803.8125,217.7813 802.5156,216.6875 802.5156,214.9844 L802.5156,213.8906 C802.5156,212.1094 803.7656,210.7969 805.5,210.7969 C806.0781,210.7969 806.6875,210.9531 807.1563,211.2031 C807.6406,211.4844 807.8125,211.7031 807.9063,212.1094 C807.9688,212.5156 808,212.6406 808.1406,212.7656 C808.2813,212.9063 808.5156,213.0156 808.7344,213.0156 C809,213.0156 809.2656,212.875 809.4375,212.6563 C809.5469,212.5 809.5781,212.3125 809.5781,211.8906 L809.5781,210.4688 C809.5781,210.0313 809.5625,209.9063 809.4688,209.75 C809.3125,209.4844 809.0313,209.3438 808.7344,209.3438 C808.4375,209.3438 808.2344,209.4375 808.0156,209.75 L807.8438,209.6719 Z " fill="#000000"/><text fill="#000000" font-family="sans-serif" font-size="12" lengthAdjust="spacing" textLength="67" x="819.5" y="218.1543">UnaEntidad</text><line style="stroke:#A80036;stroke-width:1.5;" x1="791.5" x2="888.5" y1="230" y2="230"/><line style="stroke:#A80036;stroke-width:1.5;" x1="791.5" x2="888.5" y1="238" y2="238"/><!--MD5=[055b07bdb0405fef719bf41a1185ebd7]
class DtoPersistente--><rect codeLine="49" fill="#FEFECE" filter="url(#f1snpae815mi98)" height="86.4141" id="DtoPersistente" style="stroke:#A80036;stroke-width:1.5;" width="201" x="975.5" y="13.5"/><ellipse cx="1027.75" cy="29.5" fill="#ADD1B2" rx="11" ry="11" style="stroke:#A80036;stroke-width:1.0;"/><path d="M1030.0938,25.1719 C1029.1563,24.7344 1028.5625,24.5938 1027.6875,24.5938 C1025.0625,24.5938 1023.0625,26.6719 1023.0625,29.3906 L1023.0625,30.5156 C1023.0625,33.0938 1025.1719,34.9844 1028.0625,34.9844 C1029.2813,34.9844 1030.4375,34.6875 1031.1875,34.1406 C1031.7656,33.7344 1032.0938,33.2813 1032.0938,32.8906 C1032.0938,32.4375 1031.7031,32.0469 1031.2344,32.0469 C1031.0156,32.0469 1030.8125,32.125 1030.625,32.3125 C1030.1719,32.7969 1030.1719,32.7969 1029.9844,32.8906 C1029.5625,33.1563 1028.875,33.2813 1028.1094,33.2813 C1026.0625,33.2813 1024.7656,32.1875 1024.7656,30.4844 L1024.7656,29.3906 C1024.7656,27.6094 1026.0156,26.2969 1027.75,26.2969 C1028.3281,26.2969 1028.9375,26.4531 1029.4063,26.7031 C1029.8906,26.9844 1030.0625,27.2031 1030.1563,27.6094 C1030.2188,28.0156 1030.25,28.1406 1030.3906,28.2656 C1030.5313,28.4063 1030.7656,28.5156 1030.9844,28.5156 C1031.25,28.5156 1031.5156,28.375 1031.6875,28.1563 C1031.7969,28 1031.8281,27.8125 1031.8281,27.3906 L1031.8281,25.9688 C1031.8281,25.5313 1031.8125,25.4063 1031.7188,25.25 C1031.5625,24.9844 1031.2813,24.8438 1030.9844,24.8438 C1030.6875,24.8438 1030.4844,24.9375 1030.2656,25.25 L1030.0938,25.1719 Z " fill="#000000"/><text fill="#000000" font-family="sans-serif" font-size="12" lengthAdjust="spacing" textLength="88" x="1048.25" y="33.6543">DtoPersistente</text><line style="stroke:#A80036;stroke-width:1.5;" x1="976.5" x2="1175.5" y1="45.5" y2="45.5"/><text fill="#000000" font-family="sans-serif" font-size="11" lengthAdjust="spacing" textLength="44" x="981.5" y="59.7104">id: Long</text><text fill="#000000" font-family="sans-serif" font-size="11" lengthAdjust="spacing" textLength="158" x="981.5" y="72.5151">createDate: LocalDateTime</text><text fill="#000000" font-family="sans-serif" font-size="11" lengthAdjust="spacing" textLength="189" x="981.5" y="85.3198">lastModifiedDate: LocalDateTime</text><line style="stroke:#A80036;stroke-width:1.5;" x1="976.5" x2="1175.5" y1="91.9141" y2="91.9141"/><!--MD5=[5ac65403986a2d28248fff256f26d2e4]
class UnDto--><rect codeLine="55" fill="#FEFECE" filter="url(#f1snpae815mi98)" height="48" id="UnDto" style="stroke:#A80036;stroke-width:1.5;" width="69" x="1041.5" y="198"/><ellipse cx="1056.5" cy="214" fill="#ADD1B2" rx="11" ry="11" style="stroke:#A80036;stroke-width:1.0;"/><path d="M1058.8438,209.6719 C1057.9063,209.2344 1057.3125,209.0938 1056.4375,209.0938 C1053.8125,209.0938 1051.8125,211.1719 1051.8125,213.8906 L1051.8125,215.0156 C1051.8125,217.5938 1053.9219,219.4844 1056.8125,219.4844 C1058.0313,219.4844 1059.1875,219.1875 1059.9375,218.6406 C1060.5156,218.2344 1060.8438,217.7813 1060.8438,217.3906 C1060.8438,216.9375 1060.4531,216.5469 1059.9844,216.5469 C1059.7656,216.5469 1059.5625,216.625 1059.375,216.8125 C1058.9219,217.2969 1058.9219,217.2969 1058.7344,217.3906 C1058.3125,217.6563 1057.625,217.7813 1056.8594,217.7813 C1054.8125,217.7813 1053.5156,216.6875 1053.5156,214.9844 L1053.5156,213.8906 C1053.5156,212.1094 1054.7656,210.7969 1056.5,210.7969 C1057.0781,210.7969 1057.6875,210.9531 1058.1563,211.2031 C1058.6406,211.4844 1058.8125,211.7031 1058.9063,212.1094 C1058.9688,212.5156 1059,212.6406 1059.1406,212.7656 C1059.2813,212.9063 1059.5156,213.0156 1059.7344,213.0156 C1060,213.0156 1060.2656,212.875 1060.4375,212.6563 C1060.5469,212.5 1060.5781,212.3125 1060.5781,211.8906 L1060.5781,210.4688 C1060.5781,210.0313 1060.5625,209.9063 1060.4688,209.75 C1060.3125,209.4844 1060.0313,209.3438 1059.7344,209.3438 C1059.4375,209.3438 1059.2344,209.4375 1059.0156,209.75 L1058.8438,209.6719 Z " fill="#000000"/><text fill="#000000" font-family="sans-serif" font-size="12" lengthAdjust="spacing" textLength="37" x="1070.5" y="218.1543">UnDto</text><line style="stroke:#A80036;stroke-width:1.5;" x1="1042.5" x2="1109.5" y1="230" y2="230"/><line style="stroke:#A80036;stroke-width:1.5;" x1="1042.5" x2="1109.5" y1="238" y2="238"/><!--MD5=[2bc87a0841f5e863f7d403576e8a515b]
reverse link ResponseEntityExceptionHandler to RestException--><path d="M161.587,520.8086 C177.964,536.0363 196.462,553.2366 210.918,566.6784 " fill="none" id="ResponseEntityExceptionHandler-backto-RestException" style="stroke:#A80036;stroke-width:1.0;"/><polygon fill="none" points="156.616,525.7457,146.736,507,166.15,515.493,156.616,525.7457" style="stroke:#A80036;stroke-width:1.0;"/><!--MD5=[6d9b1ded9b343275c6f5e3f53244a177]
reverse link GenericController to GenericEntityController--><path d="M501.252,123.493 C492.972,137.594 484.311,152.345 476.305,165.981 " fill="none" id="GenericController-backto-GenericEntityController" style="stroke:#A80036;stroke-width:1.0;stroke-dasharray:7.0,7.0;"/><polygon fill="none" points="495.294,119.815,511.457,106.113,507.367,126.904,495.294,119.815" style="stroke:#A80036;stroke-width:1.0;"/><!--MD5=[7beadf1eb97d5e7d0c9b35495c9acdb9]
reverse link GenericController to GenericDtoController--><path d="M588.94,122.554 C599.761,136.938 611.123,152.042 621.61,165.981 " fill="none" id="GenericController-backto-GenericDtoController" style="stroke:#A80036;stroke-width:1.0;stroke-dasharray:7.0,7.0;"/><polygon fill="none" points="583.001,126.303,576.571,106.113,594.188,117.887,583.001,126.303" style="stroke:#A80036;stroke-width:1.0;"/><!--MD5=[fe17d099d9e1a2356b821d7fbe009669]
link GenericEntityController to GenericService--><path codeLine="33" d="M444,278.041 C444,296.242 444,315.99 444,332.29 " fill="none" id="GenericEntityController-to-GenericService" style="stroke:#A80036;stroke-width:1.0;stroke-dasharray:7.0,7.0;"/><polygon fill="#A80036" points="444,337.679,448,328.679,444,332.679,440,328.679,444,337.679" style="stroke:#A80036;stroke-width:1.0;"/><!--MD5=[7d0026f0ed7fa91c1c63e3220819c234]
reverse link GenericService to GenericEntityService--><path d="M406.589,414.755 C394.14,429.815 380.786,445.969 370.287,458.669 " fill="none" id="GenericService-backto-GenericEntityService" style="stroke:#A80036;stroke-width:1.0;stroke-dasharray:7.0,7.0;"/><polygon fill="none" points="401.427,410.013,419.565,399.058,412.218,418.933,401.427,410.013" style="stroke:#A80036;stroke-width:1.0;"/><!--MD5=[9652c1a2298f73986c7b33c527fa9300]
reverse link GenericService to GenericDtoService--><path d="M481.813,414.755 C494.396,429.815 507.894,445.969 518.505,458.669 " fill="none" id="GenericService-backto-GenericDtoService" style="stroke:#A80036;stroke-width:1.0;stroke-dasharray:7.0,7.0;"/><polygon fill="none" points="476.15,418.894,468.697,399.058,486.893,409.917,476.15,418.894" style="stroke:#A80036;stroke-width:1.0;"/><!--MD5=[a03eae95ae716038676d080c6c2edd20]
link GenericEntityService to RestException--><path codeLine="39" d="M326.047,507 C308.087,523.5548 283.81,545.9314 264.99,563.2791 " fill="none" id="GenericEntityService-to-RestException" style="stroke:#A80036;stroke-width:1.0;stroke-dasharray:7.0,7.0;"/><polygon fill="#A80036" points="261.302,566.6784,270.6307,563.52,264.9785,563.2897,265.2088,557.6376,261.302,566.6784" style="stroke:#A80036;stroke-width:1.0;"/><!--MD5=[81269cd8a46be207c10d4dc972ede03c]
reverse link EntidadPersistente to UnaEntidad--><path d="M840,119.674 C840,146.993 840,177.411 840,197.724 " fill="none" id="EntidadPersistente-backto-UnaEntidad" style="stroke:#A80036;stroke-width:1.0;"/><polygon fill="none" points="833,119.605,840,99.605,847,119.605,833,119.605" style="stroke:#A80036;stroke-width:1.0;"/><!--MD5=[302b7976f0135d8f03c3fe148f9f8d84]
reverse link DtoPersistente to UnDto--><path d="M1076,119.674 C1076,146.993 1076,177.411 1076,197.724 " fill="none" id="DtoPersistente-backto-UnDto" style="stroke:#A80036;stroke-width:1.0;"/><polygon fill="none" points="1069,119.605,1076,99.605,1083,119.605,1069,119.605" style="stroke:#A80036;stroke-width:1.0;"/><!--MD5=[27d4b223b5f995afca9b1e6d0cf334f1]
@startuml
class RestException extends ResponseEntityExceptionHandler
interface GenericController{
+save()
+update()
+partialUpdate()
+find()
}

abstract class  GenericEntityController implements GenericController{

{abstract} GenericService getService()
+save()
+update()
+partialUpdate()
+find()
}

abstract class GenericService {

{abstract} JpaRepository getRepository()

}

abstract class  GenericDtoController implements GenericController{

{abstract} GenericService getService()
+save()
+update()
+partialUpdate()
+find()
}

GenericEntityController ..> GenericService

class GenericEntityService implements GenericService

class GenericDtoService implements GenericService

GenericEntityService ..> RestException

class EntidadPersistente {
  id: Long
  createDate: LocalDateTime
  lastModifiedDate: LocalDateTime
}

class UnaEntidad extends EntidadPersistente

class DtoPersistente {
  id: Long
  createDate: LocalDateTime
  lastModifiedDate: LocalDateTime
}

class UnDto extends DtoPersistente
@enduml

PlantUML version 1.2021.10beta3(Unknown compile time)
(GPL source distribution)
Java Runtime: Java(TM) SE Runtime Environment
JVM: Java HotSpot(TM) 64-Bit Server VM
Default Encoding: UTF-8
Language: en
Country: US
--></g></svg>